<?xml version="1.0" encoding="utf-8"?>
<!-- Generator: Adobe Illustrator 16.0.0, SVG Export Plug-In . SVG Version: 6.00 Build 0)  -->
<!DOCTYPE svg PUBLIC "-//W3C//DTD SVG 1.1//EN" "http://www.w3.org/Graphics/SVG/1.1/DTD/svg11.dtd">
<svg version="1.1" id="Layer_1" xmlns="http://www.w3.org/2000/svg" xmlns:xlink="http://www.w3.org/1999/xlink" x="0px" y="0px"
	 width="800px" height="1280px" viewBox="0 0 800 1280" enable-background="new 0 0 800 1280" xml:space="preserve">
<g>
	<rect x="8.312" y="737.7" fill="#AAAD00" width="782.017" height="103.176"/>
	<g>
		<path fill="#FFFFFF" d="M67.736,994.584l-26.276-46.526l-13.168,15.789v30.737H8.312V892.418h14.56
			c2.985,0,5.419,2.426,5.419,5.399v39.108l35.979-44.508h24.285l-33.867,40.615l36.338,61.551H67.736z"/>
		<path fill="#FFFFFF" d="M168.738,994.584l-6.033-18.109h-36.302l-6.188,18.109H99.432l37.129-102.206h11.909
			c2.254,0,4.305,1.427,5.061,3.556l36.026,98.65H168.738z M144.957,922.565l-12.929,37.252h25.401L144.957,922.565z"/>
		<path fill="#FFFFFF" d="M234.265,995.433c-15.423,0-27.271-3.247-37.333-13.477l12.928-12.87c6.405,6.4,15.208,8.589,24.706,8.589
			c11.754,0,18.097-4.545,18.097-12.741c0-3.533-1.068-6.551-3.118-8.421c-2.063-1.949-4.317-3.016-9.115-3.687l-12.352-1.746
			c-8.718-1.282-15.134-4.069-19.788-8.422c-4.905-4.907-7.364-11.458-7.364-20.093c0-18.23,13.528-31.034,35.643-31.034
			c14.055,0,24.261,3.467,32.979,11.891l-12.604,12.574c-6.475-6.236-14.175-7.147-20.975-7.147
			c-10.602,0-15.793,5.943-15.793,12.953c0,2.712,0.887,5.334,3.093,7.376c2.014,1.879,5.253,3.476,9.379,4.011l12.051,1.72
			c9.438,1.271,15.292,3.837,19.572,7.89c5.42,5.207,7.891,12.581,7.891,21.611C272.162,984.27,255.637,995.433,234.265,995.433z"/>
		<path fill="#FFFFFF" d="M288.844,994.584V892.371h61.941c2.986,0,5.409,2.421,5.409,5.416v12.392h-47.431v24.011h40.39v17.797
			h-40.39v24.766h47.431v12.44c0,2.979-2.423,5.392-5.409,5.392H288.844z"/>
		<path fill="#FFFFFF" d="M416.086,910.229v84.439h-20.014v-84.439h-26.613v-12.391c0-2.987,2.421-5.398,5.421-5.398h62.457
			c2.999,0,5.423,2.411,5.423,5.398v12.391H416.086z"/>
		<path fill="#FFFFFF" d="M488.079,995.433c-15.484,0-27.26-3.247-37.312-13.477l12.979-12.87c6.438,6.4,15.096,8.589,24.572,8.589
			c11.835,0,18.12-4.545,18.12-12.741c0-3.533-0.972-6.551-3.096-8.421c-2.059-1.949-4.278-3.016-9.03-3.687l-12.351-1.746
			c-8.777-1.282-15.185-4.069-19.838-8.422c-4.925-4.907-7.276-11.458-7.276-20.093c0-18.23,13.43-31.034,35.58-31.034
			c14.068,0,24.226,3.467,32.982,11.891l-12.63,12.574c-6.43-6.236-14.21-7.147-20.938-7.147c-10.652,0-15.735,5.943-15.735,12.953
			c0,2.712,0.768,5.334,2.949,7.376c2.016,1.879,5.327,3.476,9.535,4.011l11.944,1.72c9.476,1.271,15.315,3.837,19.573,7.89
			c5.432,5.207,7.878,12.581,7.878,21.611C525.986,984.27,509.496,995.433,488.079,995.433z"/>
		<path fill="#FFFFFF" d="M602.573,994.584l-6.033-18.097h-36.373l-6.192,18.097h-20.72l37.13-102.166h11.895
			c2.28,0,4.308,1.417,5.098,3.543l35.99,98.623H602.573z M578.803,922.565l-12.964,37.252h25.438L578.803,922.565z"/>
		<path fill="#FFFFFF" d="M691.33,994.584l-19.909-40.778h-14.308v40.778h-19.919V892.418h39.974
			c20.816,0,33.145,14.174,33.145,31.259c0,14.381-8.73,23.272-18.66,26.877l22.858,44.03H691.33z M675.943,910.229h-18.83v26.92
			h18.83c8.671,0,14.488-5.575,14.488-13.473C690.432,915.777,684.614,910.229,675.943,910.229z"/>
		<path fill="#FFFFFF" d="M769.82,910.229v84.391h-19.966v-84.391H723.16v-12.35c0-2.983,2.434-5.399,5.396-5.399h62.518
			c2.998,0,5.409,2.416,5.409,5.399v12.35H769.82z"/>
	</g>
	<g>
		<path fill="#FFFFFF" d="M40.333,1124.333c-18.722,0-31.984-12.87-31.984-31.177v-63.016h7.123v62.196
			c0,15.513,9.917,25.674,24.861,25.674c14.941,0,24.957-10.161,24.957-25.674v-62.196h7.063v63.016
			C72.353,1111.463,59.089,1124.333,40.333,1124.333z"/>
		<path fill="#FFFFFF" d="M170.561,1123.586l-53.99-81.249v81.249h-7.017v-93.445h7.017l53.99,80.958v-80.958h7.051v93.445H170.561z
			"/>
		<path fill="#FFFFFF" d="M216.06,1123.586v-93.445h7.077v93.445H216.06z"/>
		<path fill="#FFFFFF" d="M285.27,1123.586h-6.08l-30.652-93.445h7.446l26.252,80.958l26.204-80.958h7.484L285.27,1123.586z"/>
		<path fill="#FFFFFF" d="M341.3,1123.586v-93.445h56.676v6.32h-49.625v36.819h42.298v6.331h-42.298v37.633h49.625v6.342H341.3z"/>
		<path fill="#FFFFFF" d="M484.444,1123.586l-22.32-43.073h-25.697v43.073h-7.111v-93.445h35.629
			c15.146,0,26.709,8.72,26.709,25.017c0,13.915-8.384,22.956-21.527,25.209l22.606,43.22H484.444z M463.996,1036.461h-27.569
			v37.809h27.569c11.911,0,20.531-6.092,20.531-18.902C484.527,1042.423,475.907,1036.461,463.996,1036.461z"/>
		<path fill="#FFFFFF" d="M548.534,1124.333c-13.877,0-22.634-3.767-31.146-12.341l5.024-4.992
			c8.37,8.441,15.269,11.011,26.53,11.011c14.608,0,23.922-7.06,23.922-19.271c0-5.584-1.677-10.085-5.06-13.105
			c-3.406-2.947-5.911-3.769-13.468-4.979l-10.901-1.632c-7.136-1.061-12.714-3.467-16.705-6.944
			c-5.023-4.132-7.316-10.037-7.316-17.147c0-15.608,11.093-25.63,28.929-25.63c11.548,0,18.828,3.189,26.897,10.09l-4.57,4.691
			c-5.731-5.224-11.549-8.736-22.665-8.736c-13.553,0-21.61,7.521-21.61,19.346c0,5.333,1.522,9.423,4.751,12.134
			c3.307,2.854,8.729,5.025,13.959,5.858l10.072,1.584c8.861,1.288,12.76,2.8,16.718,6.097c5.047,4.191,8.18,10.623,8.18,18.075
			C580.074,1114.229,567.937,1124.333,548.534,1124.333z"/>
		<path fill="#FFFFFF" d="M611.806,1123.586v-93.445h7.101v93.445H611.806z"/>
		<path fill="#FFFFFF" d="M681.713,1036.461v87.125h-7.042v-87.125H646.79v-6.32h62.89v6.32H681.713z"/>
		<path fill="#FFFFFF" d="M759.125,1084.864v38.722h-7.028v-38.722l-27.585-54.724h7.617l23.709,47.217l23.256-47.217h7.576
			L759.125,1084.864z"/>
	</g>
	<path fill="#FFFFFF" d="M688.738,118.905V456.15c0,60.383-36.216,96.397-91.648,96.397c-55.441,0-90.984-36.014-90.984-96.397
		V151.657c0-18.169-14.636-32.752-32.648-32.752h-48.52h-5.217h-16.359v0.078H328.3h-4.653h-16.756c-3.668,0-7.35,0.57-10.828,1.685
		c-6.44,2.063-12.244,5.924-16.622,11.298L111.208,339.132V118.905H8.384V634.84h102.825V477.401l68.01-80.854L314.484,634.84
		h119.709L247.218,319.255l149.811-178.703c0.984-1.199,2.542-1.619,3.995-1.05c1.427,0.523,2.338,1.871,2.338,3.364v83.973v71.152
		v161.83c0,111.086,85.727,183.859,193.729,183.859c107.912,0,193.66-72.772,193.66-183.859V118.905H688.738z"/>
</g>
</svg>
